<?xml version="1.0" encoding="UTF-8" standalone="no"?>
<svg
   xmlns:dc="http://purl.org/dc/elements/1.1/"
   xmlns:cc="http://creativecommons.org/ns#"
   xmlns:rdf="http://www.w3.org/1999/02/22-rdf-syntax-ns#"
   xmlns:svg="http://www.w3.org/2000/svg"
   xmlns="http://www.w3.org/2000/svg"
   xmlns:sodipodi="http://sodipodi.sourceforge.net/DTD/sodipodi-0.dtd"
   xmlns:inkscape="http://www.inkscape.org/namespaces/inkscape"
   version="1.1"
   id="Ebene_1"
   x="0px"
   y="0px"
   width="542"
   height="434"
   viewBox="0 0 542 434"
   enable-background="new 0 0 595 842"
   xml:space="preserve">
<path
   style="fill:#0094d5"
   id="path5"
   d="m 271.00015,434.00002 c -105.38711,0 -192.96314,-36.64097 -234.268285,-98.01694 C 0.87538914,282.70676 -5.4555804,190.62549 3.838128,127.61736 10.8945,79.773408 41.593691,49.245379 70.275612,35.195802 96.516431,22.340286 144.99817,0.00156119 271.00015,0.00156119 c 126.00402,0 174.48169,22.33872481 200.72454,35.19424081 28.68192,14.051614 59.38315,44.577606 66.43749,92.421558 9.2937,63.00813 2.9607,155.0894 -32.89374,208.36572 -41.30515,61.37597 -128.88322,98.01694 -234.26829,98.01694 l 0,0 z" /><path
   style="fill:#ffffff"
   id="path7"
   d="m 271.00015,430.48711 c -104.21546,0 -190.70339,-36.06227 -231.356487,-96.46629 C 4.3088245,281.51881 -1.8856227,190.491 7.3102787,128.12881 13.922444,83.302612 42.624741,52.638061 71.726416,38.290988 96.795589,25.932658 145.93141,3.5124271 270.99811,3.5124271 c 125.06467,0 174.20457,22.4181939 199.2717,34.7785609 29.09964,14.347073 57.80194,45.011624 64.41614,89.837822 9.19794,62.36015 3.00145,153.39 -32.33135,205.89201 -40.65106,60.40402 -127.13899,96.46629 -231.35445,96.46629 l 0,0 z" /><path
   style="fill:#0094d5"
   id="path9"
   d="m 271.00015,416.43957 c -86.29231,0 -176.556006,-26.15116 -219.701146,-90.25961 C 18.101658,276.8526 12.693742,187.91949 21.20907,130.18072 28.336759,81.864033 62.08427,58.231402 77.41349,51.280988 92.738633,44.326499 135.88785,17.562004 271.00015,17.562004 c 135.11434,0 178.25948,26.766532 193.58463,33.718984 15.32922,6.950414 49.07877,30.583045 56.20645,78.899732 8.51329,57.73877 3.10742,146.67188 -30.09197,195.99924 -43.14514,64.10845 -133.40883,90.25961 -219.69911,90.25961 l 0,0 z" /><path
   style="fill:#ffffff"
   id="path11"
   d="m 271.01034,390.42493 c 0,0 -79.93893,0.7091 -139.56252,-35.5875 -58.794274,-35.7872 -65.24954,-94.99715 -65.24954,-122.17732 0,-24.23578 -1.992819,-60.44069 29.904509,-79.4662 24.840951,-14.81777 83.472211,-28.80622 174.907551,-28.80622 91.43738,0 150.0666,13.98845 174.90959,28.80622 31.89733,19.02551 29.90858,55.23042 29.90858,79.4662 0,27.18017 -6.46341,86.38808 -65.25157,122.17732 -59.63174,36.2966 -139.5666,35.5875 -139.5666,35.5875 l 0,0 z" /><path
   style="fill:#0094d5"
   id="path13"
   d="m 510.30754,377.38603 c -6.41859,0 -11.50863,-5.07578 -11.50863,-11.4638 0,-6.39006 5.07374,-11.46584 11.49437,-11.46584 6.41451,0 11.49436,5.07578 11.49436,11.46584 -0.002,6.38802 -5.06355,11.4638 -11.4801,11.4638 v -1.86648 c 5.24898,0 9.61158,-4.20163 9.61158,-9.59732 0,-5.42626 -4.37686,-9.59936 -9.62788,-9.59936 -5.25305,0 -9.62788,4.1731 -9.62788,9.59936 0,5.39569 4.38909,9.59732 9.64214,9.59732 v 1.86648 l 0.002,0 z" /><path
   style="fill:#0094d5"
   id="path15"
   d="m 507.8481,372.45696 h -1.99486 v -12.89423 h 5.06152 c 2.9607,0 4.50524,0.75801 4.50524,3.41306 0,2.68766 -1.8237,3.34785 -3.31525,3.34785 l 3.43547,6.13536 h -2.24549 l -3.18077,-5.95197 h -2.2679 v -1.86852 l 3.0687,-0.0102 c 1.44062,0 2.53076,-0.15282 2.53076,-1.64846 0,-1.29186 -0.76005,-1.55064 -2.51446,-1.55064 h -3.085 v 11.02774 l 0.002,0 z" /><path
   style="fill:#d73a37"
   id="path17"
   d="m 381.3041,205.7489 c 0,-3.12779 -2.52668,-5.66262 -5.65447,-5.66262 h -8.37269 c -3.12779,0 -5.6504,2.54502 -5.6504,5.67281 l 0.004,87.574 c 0,3.12779 2.52261,5.66466 5.6504,5.66466 h 8.37269 c 3.12371,0 5.65039,-2.5491 5.65039,-5.67485 v -87.574 l 0,0 z" /><path
   style="fill:#d73a37"
   id="path19"
   d="m 392.03231,208.07589 v 4.16088 c 0,1.72181 1.40394,3.11352 3.13187,3.11352 l 57.76322,0 c 2.63468,0 4.77217,-2.12526 4.77217,-4.75994 v -7.05026 c 0,-2.63468 -2.16602,-5.01872 -4.78032,-4.76198 0,0 -55.83561,5.47923 -57.63485,5.683 -2.08044,0.23433 -3.25209,1.89094 -3.25209,3.61478 l 0,0 z" /><path
   style="fill:#d73a37"
   id="path21"
   d="m 345.21126,299.00182 c -14.37153,0 -23.41257,-10.89937 -23.41257,-23.03152 l -0.0122,-35.03735 -4.11605,-0.002 c -2.18843,0 -3.9673,-1.76664 -3.9673,-3.95915 v -5.86639 c 0,-2.19047 1.78294,-3.951 3.97545,-3.951 l 4.1079,0.006 -0.004,-21.54405 c 0,-3.05035 2.45944,-5.52202 5.50776,-5.52202 h 8.16282 c 3.04832,0 5.51591,2.48797 5.51591,5.54036 v 21.52571 l 12.73529,-0.004 c 2.19251,0 3.97138,1.76257 3.97138,3.95508 v 5.86638 c 0,2.19047 -1.77479,3.95711 -3.9673,3.95711 l -12.7353,-0.002 0.008,32.40674 c 0,6.36358 3.85319,10.70988 10.74452,10.70988 l 1.15738,-0.008 c 2.37997,0 4.3137,1.91335 4.3137,4.29332 v 6.36765 c 0,2.38201 -1.92558,4.29739 -4.30555,4.29739 h -7.67989 l 0,0.002 z" /><path
   style="fill:#d73a37"
   id="path23"
   d="m 210.64097,239.62478 c 8.57442,0 15.97719,6.10276 16.72704,14.3593 l -33.32979,0.002 c 0.74986,-8.25858 8.02629,-14.36134 16.60275,-14.36134 v -14.98893 c -23.22918,0 -36.25789,18.17785 -36.25789,37.33581 0,20.41519 13.95788,38.38927 36.41071,38.38927 15.36794,0 30.51988,-8.09965 33.38278,-21.39529 0.38511,-1.79721 -0.82321,-4.14865 -3.3499,-4.15884 l -10.98088,0.002 c -1.99689,0 -3.62497,0.95565 -4.60712,2.39423 -3.14205,4.60712 -7.74713,7.05841 -14.55287,7.05841 -9.6177,0 -16.28692,-7.58208 -16.79021,-15.98126 l 46.70491,-0.002 c 4.29943,0 6.22297,-2.33515 6.22297,-6.31059 0,-18.67708 -11.05627,-37.33377 -36.1825,-37.33174 v 14.98893 l 0,0 z" /><path
   style="fill:#d73a37"
   id="path25"
   d="m 423.45691,239.62478 c 8.57645,0 15.97923,6.10276 16.73112,14.3593 l -33.3298,0.002 c 0.74782,-8.25858 8.02222,-14.36134 16.59868,-14.36134 v -14.98893 c -23.22918,0 -36.25993,18.17785 -36.25586,37.33581 0,20.41519 13.95381,38.38927 36.40664,38.38927 15.36998,0 30.52192,-8.09965 33.38685,-21.39529 0.38512,-1.79721 -0.82321,-4.14865 -3.35193,-4.15884 l -10.98088,0.002 c -1.99689,0 -3.62497,0.95565 -4.60916,2.39423 -3.14001,4.60712 -7.74509,7.05841 -14.55491,7.05841 -9.61566,0 -16.28487,-7.58208 -16.78614,-15.98126 l 46.70288,-0.002 c 4.30147,0 6.22501,-2.33515 6.22501,-6.31059 0,-18.67708 -11.06035,-37.33377 -36.18454,-37.33174 v 14.98893 l 0.002,0 z" /><path
   style="fill:#d73a37"
   id="path27"
   d="M 306.07417,201.06843 H 154.79518 c -3.44159,0 -6.21687,2.78954 -6.21687,6.22908 l 0.5196,59.41576 c 0,0 -32.60235,-58.88393 -34.29971,-61.8915 -1.59751,-2.82621 -5.03095,-5.42829 -9.77867,-5.42829 H 92.577659 c -3.439548,0 -6.225012,2.78954 -6.225012,6.23113 l 0.0041,87.13386 c 0,3.44159 2.783426,6.2352 6.222974,6.2352 h 7.979423 c 3.43955,0 6.21686,-2.8038 6.21686,-6.24335 l -0.49922,-61.08662 c 0,0 32.91411,59.4728 34.32009,61.8161 1.90113,3.16446 5.11246,5.51387 9.76848,5.51387 l 11.42916,0.002 c 3.43955,0 6.22094,-2.79362 6.22094,-6.23724 l -0.006,-76.92525 138.073,0.004 c 2.34737,0 4.25053,-1.89501 4.25053,-4.24442 v -6.28614 c 0.004,-2.34737 -1.90723,-4.2383 -4.25868,-4.2383 l 0,0 z" /><path
   style="fill:#d73a37"
   id="path29"
   d="m 281.5898,238.89938 c 6.57549,0 11.49845,2.38405 13.26916,6.50825 0.85174,1.97855 2.5002,2.36163 4.7681,2.36163 h 9.04307 c 1.49564,0 3.21134,-1.28576 3.21134,-3.23986 0,-10.51833 -12.53968,-19.90781 -30.29778,-19.90781 -18.4244,0 -30.43633,8.75577 -30.43633,22.69124 0,10.66708 8.4277,17.01639 18.78914,19.72442 4.72123,1.23278 12.7842,3.22967 16.70871,4.25665 4.23423,1.11051 8.02018,2.40849 8.02018,6.03143 0,5.72375 -6.03348,7.67174 -12.61508,7.67174 -6.24131,0 -12.46021,-2.78954 -14.24111,-7.23976 -1.03105,-2.57966 -2.84048,-2.95255 -5.58112,-2.95255 h -9.19998 c -1.60362,0 -3.44973,1.37949 -3.44973,3.47215 v 1.18388 c 0,10.18008 13.65223,20.83697 32.48824,20.83697 13.35678,0 31.96661,-5.55462 31.96661,-23.46554 0,-10.37162 -6.9443,-17.55433 -18.23898,-20.42334 -4.41354,-1.1207 -15.03172,-3.82262 -17.3363,-4.41761 -4.11808,-1.06366 -7.96109,-2.4085 -7.96109,-5.93567 -0.004,-5.34067 4.93315,-7.15622 11.09295,-7.15622 l 0,0 z" /><path
   style="fill:#ffffff"
   id="path31"
   d="m 250.91303,71.178612 c 0,1.018824 0.99641,1.844071 2.22511,1.844071 h 6.58364 c 0.10188,0.442169 0.24859,0.868037 0.42179,1.283717 l -9.85406,4.715116 -12.91257,-6.002909 c -1.9215,-0.896564 -4.35853,-0.332136 -5.44052,1.263342 -1.08199,1.59344 -0.39938,3.612748 1.52212,4.509313 l 8.76596,4.091595 -5.87657,2.811953 -9.22443,-4.303511 c -1.58325,-0.737628 -3.5883,-0.273044 -4.47875,1.0392 -0.89045,1.312245 -0.3301,2.972927 1.25315,3.712593 l 5.82971,2.720259 -5.76654,2.758974 c -1.06365,0.509412 -1.42839,1.636231 -0.81506,2.518532 0.61537,0.882301 1.97448,1.183873 3.04017,0.674461 l 5.86435,-2.807877 -0.0754,5.731901 c -0.0183,1.505821 1.43655,2.738598 3.25209,2.754898 1.81554,0.0163 3.30506,-1.189985 3.3234,-2.695806 l 0.11819,-8.959535 5.86638,-2.807877 -0.11003,8.505139 c -0.0245,1.827769 1.74422,3.327477 3.951,3.347854 2.20677,0.02038 4.01416,-1.44673 4.03861,-3.276537 l 0.18747,-12.437798 9.78682,-4.68455 c 0.30972,0.291383 0.64185,0.564428 0.99233,0.821172 l -3.30506,4.743642 c -0.61537,0.882301 -0.25063,2.00912 0.81302,2.518532 1.06365,0.509412 2.4248,0.20784 3.03813,-0.676499 l 3.29487,-4.729379 c 0.5033,0.142635 1.01883,0.262857 1.54862,0.3464 v 9.428193 l -12.72715,6.26984 c -1.89908,0.933243 -2.52668,2.962739 -1.4019,4.537839 1.12478,1.57307 3.57403,2.0947 5.47312,1.16146 l 8.65593,-4.246456 v 5.625946 l -9.10625,4.46856 c -1.56287,0.76615 -2.08044,2.43906 -1.15331,3.735 0.92509,1.29595 2.94237,1.72385 4.5032,0.95566 l 5.75636,-2.82418 v 5.51795 c 0,1.01882 0.99641,1.84407 2.22511,1.84407 1.22666,0 2.22511,-0.82525 2.22511,-1.84407 v -5.51795 l 5.75431,2.82418 c 1.56492,0.76819 3.58219,0.34029 4.50524,-0.95566 0.92713,-1.29594 0.40957,-2.96885 -1.15331,-3.735 l -9.10624,-4.46856 v -5.625946 l 8.65592,4.246456 c 1.89909,0.93324 4.35038,0.41161 5.47312,-1.16146 1.12682,-1.573062 0.49719,-3.604596 -1.4019,-4.537839 l -12.72714,-6.26984 v -9.428193 c 0.52979,-0.08354 1.04735,-0.203765 1.54861,-0.3464 l 3.29487,4.729379 c 0.61334,0.882301 1.97448,1.185911 3.0361,0.676499 1.06569,-0.509412 1.42839,-1.638268 0.81506,-2.518532 l -3.30303,-4.743642 c 0.35048,-0.256744 0.68058,-0.531826 0.9903,-0.821172 l 9.78682,4.68455 0.18746,12.437798 c 0.0285,1.829807 1.83388,3.296913 4.03862,3.276537 2.20881,-0.02038 3.97545,-1.520085 3.951,-3.347854 l -0.11208,-8.505139 5.87047,2.807877 0.11614,8.959535 c 0.0204,1.505821 1.50786,2.712106 3.32748,2.695806 1.81554,-0.0163 3.27042,-1.249077 3.25208,-2.754898 l -0.0754,-5.731901 5.86231,2.807877 c 1.06569,0.509412 2.42684,0.20784 3.04017,-0.674461 0.61333,-0.882301 0.25063,-2.011157 -0.81506,-2.518532 l -5.76654,-2.758974 5.82971,-2.720259 c 1.58325,-0.737628 2.14564,-2.400348 1.25315,-3.712593 -0.88841,-1.312244 -2.89346,-1.776828 -4.47671,-1.0392 l -9.22443,4.303511 -5.87861,-2.811953 8.768,-4.091595 c 1.9215,-0.896565 2.60615,-2.915873 1.52008,-4.509313 -1.07791,-1.59344 -3.51901,-2.159906 -5.44052,-1.263342 l -12.91053,6.002909 -9.85406,-4.715116 c 0.17116,-0.417717 0.31787,-0.843586 0.42179,-1.283717 h 6.5816 c 1.22667,0 2.22511,-0.825247 2.22511,-1.844071 0,-1.018824 -0.99844,-1.842033 -2.22511,-1.842033 h -6.5816 c -0.10392,-0.440132 -0.25063,-0.868038 -0.42179,-1.283718 l 9.85406,-4.715115 12.91053,6.002908 c 1.92151,0.896565 4.36261,0.332137 5.44052,-1.261303 1.08607,-1.59344 0.40142,-3.612749 -1.52008,-4.509313 l -8.768,-4.091596 5.87861,-2.811953 9.22443,4.303511 c 1.58325,0.739666 3.59034,0.273045 4.47671,-1.037162 0.89249,-1.312245 0.3301,-2.974965 -1.25315,-3.712593 l -5.82971,-2.720259 5.76654,-2.758974 c 1.06569,-0.509412 1.42839,-1.636231 0.81506,-2.518532 -0.61333,-0.882301 -1.97448,-1.183873 -3.04017,-0.674461 l -5.86231,2.80584 0.0754,-5.731902 c 0.0204,-1.505821 -1.43654,-2.738597 -3.25208,-2.754898 -1.81962,-0.0163 -3.3071,1.189985 -3.32748,2.695807 l -0.11614,8.959534 -5.87047,2.807878 0.11208,-8.505139 c 0.0245,-1.829807 -1.74219,-3.327478 -3.951,-3.349892 -2.20474,-0.02038 -4.01213,1.446729 -4.03862,3.274499 l -0.18746,12.439835 -9.78682,4.684551 c -0.30972,-0.291384 -0.63982,-0.564428 -0.9903,-0.821172 l 3.30303,-4.74568 c 0.61333,-0.882301 0.25063,-2.00912 -0.81506,-2.518532 -1.06162,-0.509412 -2.42276,-0.20784 -3.0361,0.674461 l -3.29487,4.729379 c -0.50126,-0.142635 -1.01882,-0.262856 -1.54861,-0.3464 v -9.428193 l 12.72714,-6.267802 c 1.89909,-0.933243 2.52668,-2.962739 1.4019,-4.53784 -1.12274,-1.575102 -3.57403,-2.094702 -5.47312,-1.163497 l -8.65592,4.246457 v -5.625944 l 9.10624,-4.470598 c 1.56492,-0.766155 2.08044,-2.439063 1.15331,-3.732969 -0.92305,-1.295944 -2.94032,-1.72385 -4.50524,-0.957694 l -5.75431,2.826216 v -5.517948 c 0,-1.018824 -0.99845,-1.844071 -2.22511,-1.844071 -1.2287,0 -2.22511,0.825247 -2.22511,1.844071 v 5.517948 l -5.75636,-2.826216 c -1.56287,-0.766156 -3.58014,-0.33825 -4.5032,0.957694 -0.92509,1.293906 -0.40956,2.966814 1.15331,3.732969 l 9.10625,4.470598 v 5.625944 l -8.65593,-4.246457 c -1.89909,-0.933242 -4.34834,-0.411605 -5.47312,1.163497 -1.12478,1.573063 -0.49718,3.604597 1.4019,4.53784 l 12.72715,6.267802 v 9.428193 c -0.53183,0.08354 -1.04735,0.203765 -1.54862,0.3464 l -3.29487,-4.729379 c -0.61333,-0.882301 -1.97448,-1.183873 -3.03813,-0.674461 -1.06365,0.509412 -1.42839,1.636231 -0.81302,2.518532 l 3.30506,4.74568 c -0.35048,0.256744 -0.68261,0.531826 -0.99233,0.821172 l -9.78682,-4.684551 -0.18747,-12.439835 c -0.0245,-1.82777 -1.83184,-3.294876 -4.03861,-3.274499 -2.20678,0.02038 -3.97545,1.520085 -3.951,3.349892 l 0.11003,8.505139 -5.86638,-2.807878 -0.11819,-8.959534 c -0.0204,-1.505822 -1.50786,-2.712109 -3.3234,-2.695807 -1.81554,0.0163 -3.27042,1.249077 -3.25209,2.754898 l 0.0754,5.731902 -5.86435,-2.80584 c -1.06365,-0.509412 -2.4248,-0.20784 -3.04017,0.674461 -0.61333,0.882301 -0.24859,2.00912 0.81506,2.518532 l 5.76654,2.758974 -5.82971,2.720259 c -1.58325,0.737628 -2.1436,2.400348 -1.25315,3.712593 0.89045,1.312244 2.8955,1.776828 4.47875,1.037162 l 9.22443,-4.303511 5.87657,2.811953 -8.76596,4.091596 c -1.9215,0.896564 -2.60411,2.915873 -1.52212,4.509313 1.08199,1.59344 3.51902,2.159906 5.44052,1.261303 l 12.91257,-6.002908 9.85406,4.715115 c -0.1732,0.417718 -0.31787,0.843586 -0.42179,1.283718 h -6.58364 c -1.2287,0 -2.22511,0.825247 -2.22511,1.842033 l 0,0 z" />
</svg>