<?xml version="1.0" encoding="iso-8859-1"?>
<!-- Generator: Adobe Illustrator 19.0.0, SVG Export Plug-In . SVG Version: 6.00 Build 0)  -->
<svg xmlns="http://www.w3.org/2000/svg" xmlns:xlink="http://www.w3.org/1999/xlink" version="1.1" id="Capa_1" x="0px" y="0px" viewBox="0 0 512 512" style="enable-background:new 0 0 512 512;" xml:space="preserve" width="512px" height="512px">
<g>
	<g>
		<path d="M502,316.596h-5v-59.617c0-11.342-2.82-15.822-9.466-20.447l-27.224-98.305c-2.02-7.297-10.006-10.588-25.004-14.436    c-9.78-2.51-23.444-5.301-39.516-8.072c-27.582-4.758-60.807-9.148-74.063-9.789c-2.73-0.133-5.399,0.859-7.382,2.748    c-1.98,1.887-3.102,4.504-3.102,7.24v200.678h-8.916v-127.44c0-5.523-4.477-10-10-10h-51.811v-73.75c0-5.523-4.477-10-10-10    H79.264c-5.522,0-10,4.477-10,10v73.75h-51.81c-5.523,0-10,4.477-10,10v127.779C3.166,318.063,0,321.953,0,326.596v14.998    c0,13.785,11.215,25.002,25,25.002h35.85c1.924,11.406,7.068,21.73,14.476,29.996H38.967c-5.524,0-10,4.477-10,10    c0,5.521,4.476,10,10,10h80.955c0.025,0,0.051,0.002,0.077,0.002c29.676,0,54.374-21.66,59.15-49.998h163.7    c4.776,28.338,29.475,49.998,59.15,49.998h71.033c5.522,0,10-4.479,10-10c0-5.523-4.478-10-10-10h-26.359    c7.408-8.266,12.554-18.59,14.477-29.998H487c13.785,0,25-11.217,25-25.002v-14.998C512,321.072,507.523,316.596,502,316.596z     M460.688,214.525h-95.782v-46.527c35.175,1.85,63.743,4.637,85.196,8.299L460.688,214.525z M60.849,346.596H25    c-2.711,0-5-2.291-5-5.002v-4.998h43.441C62.3,339.813,61.429,343.155,60.849,346.596z M75.326,316.595H27.454V199.156h10.903    v25.484c0,5.521,4.478,10,10,10c5.523,0,10-4.479,10-10v-25.484h86.533v102.867c-7.588-3.475-16.014-5.428-24.892-5.428    C102.27,296.595,86.319,304.329,75.326,316.595z M120.025,396.592c-0.01,0-0.018,0-0.026,0h-0.077    c-22.02-0.043-39.921-17.967-39.921-39.996c0-22.057,17.942-40,39.998-40c22.056,0,40,17.943,40,40    C159.999,378.641,142.069,396.578,120.025,396.592z M89.264,179.156v-21.875h24.148c5.522,0,10-4.477,10-10s-4.478-10-10-10    H89.264v-21.875h131.254v63.75H89.264z M164.89,199.156h117.438v117.44h-15.137v-25.482c0-5.523-4.477-10-10-10s-10,4.477-10,10    v25.482H164.89V199.156z M342.849,346.596H179.15c-0.58-3.442-1.451-6.783-2.591-10H345.44    C344.298,339.813,343.429,343.155,342.849,346.596z M402,396.594c-22.057,0-40-17.944-40-39.998c0-22.057,17.943-40,40-40    s40,17.943,40,40C442,378.651,424.057,396.594,402,396.594z M402,296.595c-17.729,0-33.68,7.734-44.673,20h-26.083v-189.82    c13.322,1.367,34.189,4.146,55.66,7.723c33.963,5.654,49.722,10.002,55.002,12.207l2.329,8.412    c-23.245-3.418-53.036-5.973-88.873-7.613c-2.722-0.121-5.39,0.873-7.364,2.76c-1.976,1.887-3.093,4.5-3.093,7.23v67.031    c0,5.523,4.478,10,10,10h111.321l3.039,10.975c0.654,2.363,2.154,4.404,4.217,5.734l1.225,0.783    c0.725,0.463,1.579,1.006,2.121,1.391c0.08,0.561,0.172,1.631,0.172,3.57v19.617h-6.614c-5.522,0-10,4.479-10,10    c0,5.523,4.478,10,10,10H477v20h-30.327C435.68,304.329,419.729,296.595,402,296.595z M492,341.594c0,2.711-2.29,5.002-5,5.002    h-25.85c-0.58-3.441-1.449-6.783-2.591-10H492V341.594z" fill="#1fb67b"/>
	</g>
</g>
<g>
	<g>
		<path d="M402.002,326.602c-16.539,0-29.995,13.455-29.995,29.994s13.456,29.996,29.995,29.996s29.995-13.457,29.995-29.996    C431.997,340.057,418.541,326.602,402.002,326.602z M402.002,366.592c-5.512,0-9.995-4.484-9.995-9.996    c0-5.512,4.483-9.994,9.995-9.994c5.512,0,9.995,4.482,9.995,9.994C411.997,362.107,407.514,366.592,402.002,366.592z" fill="#1fb67b"/>
	</g>
</g>
<g>
	<g>
		<path d="M120.001,326.602c-16.54,0-29.995,13.455-29.995,29.994s13.455,29.996,29.995,29.996c16.54,0,29.995-13.457,29.995-29.996    C149.996,340.057,136.541,326.602,120.001,326.602z M120.001,366.592c-5.511,0-9.995-4.484-9.995-9.996    c0-5.512,4.484-9.994,9.995-9.994c5.511,0,9.995,4.482,9.995,9.994C129.996,362.107,125.512,366.592,120.001,366.592z" fill="#1fb67b"/>
	</g>
</g>
<g>
	<g>
		<path d="M10.235,396.592H10c-5.523,0-10,4.477-10,10c0,5.521,4.477,10,10,10h0.235c5.523,0,10-4.479,10-10    C20.235,401.068,15.758,396.592,10.235,396.592z" fill="#1fb67b"/>
	</g>
</g>
<g>
	<g>
		<path d="M502,396.594h-0.236c-5.522,0-10,4.477-10,10c0,5.521,4.478,10,10,10H502c5.523,0,10-4.479,10-10    C512,401.07,507.523,396.594,502,396.594z" fill="#1fb67b"/>
	</g>
</g>
<g>
	<g>
		<path d="M257.191,254.07c-5.523,0-10,4.479-10,10v0.664c0,5.522,4.478,10,10,10c5.523,0,10-4.478,10-10v-0.664    C267.191,258.549,262.714,254.07,257.191,254.07z" fill="#1fb67b"/>
	</g>
</g>
<g>
	<g>
		<path d="M48.357,241.02c-5.522,0-10,4.477-10,10v0.66c0,5.523,4.478,10,10,10c5.523,0,10-4.477,10-10v-0.66    C58.357,245.496,53.881,241.02,48.357,241.02z" fill="#1fb67b"/>
	</g>
</g>
<g>
	<g>
		<path d="M139.438,137.281h-0.64c-5.522,0-10,4.477-10,10c0,5.524,4.477,10,10,10h0.64c5.522,0,10-4.477,10-10    S144.96,137.281,139.438,137.281z" fill="#1fb67b"/>
	</g>
</g>
<g>
</g>
<g>
</g>
<g>
</g>
<g>
</g>
<g>
</g>
<g>
</g>
<g>
</g>
<g>
</g>
<g>
</g>
<g>
</g>
<g>
</g>
<g>
</g>
<g>
</g>
<g>
</g>
<g>
</g>
</svg>
