<svg xmlns="http://www.w3.org/2000/svg" width="207" height="224" viewBox="0 0 207 224">
  <metadata><?xpacket begin="﻿" id="W5M0MpCehiHzreSzNTczkc9d"?>
<x:xmpmeta xmlns:x="adobe:ns:meta/" x:xmptk="Adobe XMP Core 5.6-c138 79.159824, 2016/09/14-01:09:01        ">
   <rdf:RDF xmlns:rdf="http://www.w3.org/1999/02/22-rdf-syntax-ns#">
      <rdf:Description rdf:about=""/>
   </rdf:RDF>
</x:xmpmeta>
                                                                                                    
                                                                                                    
                                                                                                    
                                                                                                    
                                                                                                    
                                                                                                    
                                                                                                    
                                                                                                    
                                                                                                    
                                                                                                    
                                                                                                    
                                                                                                    
                                                                                                    
                                                                                                    
                                                                                                    
                                                                                                    
                                                                                                    
                                                                                                    
                                                                                                    
                                                                                                    
                           
<?xpacket end="w"?></metadata>
<defs>
    <style>
      .cls-1 {
        fill: #b8b8b8;
        stroke: #b8b8b8;
        stroke-linejoin: round;
        stroke-width: 1px;
        fill-rule: evenodd;
      }
    </style>
  </defs>
  <path id="My_orders" data-name="My orders" class="cls-1" d="M66.705,20.232a17.387,17.387,0,0,0,4.757-1.613c0.443-.2.609,0.195,1.081,0,0.154-.064.471-0.462,0.649-0.538l1.3-.215c2.039-.941,4.642-1.826,6.812-2.58H81.95c0.348-.14.921-0.525,1.3-0.645H83.9c0.329-.136.925-0.527,1.3-0.645h0.649c4-1.661,8.56-3.025,12.65-4.515,0.889-.324,1.613-0.291,2.487-0.645,0.981-.4,2.259-0.948,3.243-1.29h0.649c1.612-.627,3.55-1.369,5.19-1.935h0.649c2.946-1.168,5.781-2.61,8.974-.645,1.74,1.071,2.338,3.907,3.136,5.912,0.035,0.287.072,0.573,0.108,0.86,1.676,4.039,3.091,8.559,4.541,12.684,0.311,0.885.3,1.724,0.648,2.58,1.736,4.3,2.929,8.816,4.542,13.33,0.722,2.022,1.763,4.073.648,6.557-1.506,3.356-8.182,4.127-11.677,5.7l-0.973.108c-3.394,1.4-7.3,2.652-10.812,3.87H109.2c-0.309.124-.882,0.537-1.189,0.645h-0.757c-3.411,1.349-7.281,2.754-10.812,3.87a32.545,32.545,0,0,0-3.568,1.183L91.9,62.37c-2.638,1.16-5.883,1.91-8.542,3.118l-0.973.107c-0.309.123-.883,0.537-1.189,0.645H80.437c-3.667,1.487-7.776,2.745-11.569,4.085-1.289.455-3.619-.577-4.217-0.967-2.293-1.5-2.711-5.246-3.892-7.848l-0.108-.967c-0.911-2.179-1.828-4.71-2.595-6.987-0.232-.691-0.454-1.274-0.649-1.828V51.083c-1.834-4.376-3.259-9.242-4.865-13.76-0.2-.56-0.085-0.909-0.325-1.505-0.127-.316-0.536-0.851-0.649-1.182V33.884c-0.733-1.863-1.875-4.293-.649-6.665,1.039-2.009,3.074-2.481,5.19-3.44l0.973-.107c2.133-.876,4.714-1.818,6.92-2.58,0.97-.335,1.908-0.292,2.7-0.538V20.232Zm-4.757,6.235a8.854,8.854,0,0,0-2.054.645H59.029l-0.216.43H58.164c-1.012.431-2.367,0.913-3.352,1.4-0.2,2.926,1.749,6.444,2.6,8.922C59.6,44.292,61.62,50.67,63.894,56.888v0.645c0.134,0.331.528,0.946,0.649,1.29v0.645c0.376,0.931.966,2.182,1.3,3.117,0.561,1.583.325,3.439,2.487,3.44a5.505,5.505,0,0,1,1.514-.43c0.923-.365,2.171-0.957,3.135-1.29h0.649c2.192-.881,4.791-1.806,7.028-2.58,0.747-.259,1.324-0.455,1.946-0.645h0.649c2.785-1.152,6.022-2.2,8.866-3.225h0.649c0.313-.13.956-0.528,1.3-0.645h0.649c0.288-.119.887-0.539,1.189-0.645h0.757c0.288-.117.888-0.54,1.189-0.645H98.6c0.289-.117.888-0.537,1.189-0.645,2.217-.789,4.541-1.139,6.488-2.15a12.422,12.422,0,0,1,2.054-.323,6.22,6.22,0,0,0,.973-0.645h0.649l0.216-.322c0.522-.228,1.087-0.118,1.622-0.322,0.984-.377,2.3-1.043,3.352-1.4,3.56-1.2,7.2-2.061,10.488-3.548,0.887-.4,3.443-0.654,3.784-1.4V43.343c-0.58-.512-0.333-1.167-0.649-1.935-0.024-.058-0.293-0.241-0.324-0.322V40.548c-0.09-.206-0.443-0.733-0.541-0.967l-0.108-.967L127.47,38.4V37.646c-0.115-.332-0.52-0.865-0.649-1.182V35.819c-2.509-6.291-4.289-13.166-6.812-19.457-0.2-.506-0.1-1.105-0.324-1.612-0.545-1.23-1.05-2.85-1.622-4.085-0.345-.746-0.405-2.125-1.081-2.472h-1.3c-0.7.744-2.8,0.85-3.892,1.29-2.745,1.1-5.878,2.03-8.65,3.118l-0.973.107c-0.3.124-.859,0.534-1.189,0.645h-0.757c-3.078,1.254-6.806,2.153-9.839,3.548-0.585.269-.975,0.09-1.622,0.322-4.074,1.461-8.555,3.093-12.65,4.515H75.463c-1.6.638-3.555,1.37-5.19,1.935H69.625c-0.919.367-2.2,0.966-3.136,1.29H65.84c-0.333.132-.951,0.524-1.3,0.645H63.894c-0.2.1-.774,0.479-0.973,0.537-0.393.115-.627-0.106-0.973,0v0.323ZM85.3,121.708h0.324c1.155-1.69,3.566-1.759,5.622-2.579,4.248-1.7,9.1-2.922,13.3-4.73,0.756-.326,1.483-0.084,2.27-0.43,3.444-1.516,7.6-2.608,11.137-4.085,0.73-.305,1.306-0.121,2.054-0.43,4.586-1.891,9.874-3.531,14.6-5.16,2.527-.872,5.047-1.428,7.352-2.473l0.973-.107c1.79-.711,3.952-1.4,5.731-2.15,0.933-.393,1.865-0.364,2.811-0.753,3.688-1.513,7.936-2.435,11.569-4.085l0.865-.107c0.966-.388,2.262-0.952,3.244-1.29H167.8c3.708-1.471,7.868-2.552,11.569-4.085a8.7,8.7,0,0,1,6.379.323c3.4,2.066,4.077,7.311,5.623,11.179,0.216,0.541.083,0.943,0.324,1.505,1.2,2.787,2.279,6.029,3.244,8.923,0.288,0.865.3,1.628,0.649,2.472,2.841,6.865,4.881,14.27,7.352,21.392a2.742,2.742,0,0,1-.216,1.612v0.86a7.129,7.129,0,0,1-1.947,2.9,11.907,11.907,0,0,1-4.649,2.58h-0.649c-2.746,1.088-5.875,2.021-8.649,3.117-0.962.38-1.855,0.36-2.811,0.753-4.6,1.885-9.855,3-14.381,5.052l-0.973.107c-0.348.139-.921,0.527-1.3,0.645h-0.649c-2.767,1.141-6,2.241-8.866,3.225-0.925.318-1.69,0.284-2.595,0.645-6.575,2.622-13.765,4.679-20.435,7.095-0.582.211-.926,0.082-1.514,0.323-0.7.286-1.638,0.729-2.378,0.967h-0.541c-2.2.9-4.791,1.773-7.028,2.58-1.718.62-3.376,0.923-4.973,1.612-0.037.108-.073,0.215-0.109,0.323,1.14,0.807,2.506,3.349,3.244,4.622,0.449,0.774.428,2.133,1.514,2.258,1.359-.931,3.541-1.057,5.19-1.72,2.17-.873,4.682-1.87,6.919-2.58h0.649c0.3-.125.859-0.534,1.189-0.645h0.757c2.056-.893,4.559-1.834,6.7-2.58,0.887-.309,1.74-0.3,2.595-0.645,0.32-.129.855-0.529,1.189-0.645,0.751-.262,1.333-0.456,1.946-0.645h0.649c8.882-3.554,18.5-6.273,27.463-9.675,1.467-.557,2.967-0.706,4.433-1.29,3.621-1.442,7.623-2.8,11.353-4.085,1.334-.458,2.017,1.038,2.487,1.505-0.051,3-1.386,2.371-3.46,3.225-0.337.139-.9,0.523-1.3,0.645h-0.648c-3.5,1.532-7.328,2.583-11.137,3.87-4.716,1.594-9.679,3.535-14.38,5.16-9.482,3.278-18.934,6.3-28.22,9.675-0.85.308-1.641,0.3-2.487,0.645-2.154.885-4.685,1.81-6.92,2.579-0.892.308-3.783,0.863-4,1.613,0.5,0.7.283,1.869,0.54,2.8,1.194,4.3.369,10.311-.973,13.76l-0.108.967a46.651,46.651,0,0,1-1.946,4.515c-3.012,4.973-7.111,9.724-12.326,12.469h-0.54c-0.652.314-1.463,1.022-2.163,1.29-0.661.254-1.176,0.466-1.73,0.645h-0.541c-0.64.254-1.572,0.595-2.27,0.86-0.937.356-2.314,0.323-3.244,0.645l-2.379.108a11.839,11.839,0,0,1-3.892.107c-0.739-.163-1.88-0.219-2.487-0.43h-1.3a39.646,39.646,0,0,1-10.164-3.869c-0.218-.127-0.432-0.517-0.649-0.646-0.386-.229-0.657-0.453-0.973-0.644H76.544a7.3,7.3,0,0,1-.433-0.645,24.462,24.462,0,0,1-2.054-1.4c-0.6-.583-0.545-1.472-1.622-1.612v-0.323H72.111c-0.337-.54-0.992-0.881-1.3-1.4-0.187-.317-0.023-0.612-0.216-0.968-0.167-.309-1.138-0.646-1.406-1.075A63.765,63.765,0,0,1,65.516,199a23.04,23.04,0,0,1-.649-2.579c-0.893-2.652-1.815-8.6-.973-12.148,0.613-2.581.984-5.31,2.054-7.524,0.6-1.249,1.209-2.659,1.946-3.87,0.308-.506.89-1.009,1.189-1.5a12.546,12.546,0,0,1,.649-1.29c0.608-.767,1.332-1.463,1.946-2.258,0.151-.194.5-0.246,0.649-0.43l0.108-.43c0.128-.127.423-0.074,0.54-0.215a6.25,6.25,0,0,1,.973-1.182h0.324c0.178-.148.237-0.5,0.432-0.645,0.478-.358,1.067-0.571,1.514-0.967l0.108-.323h0.433c0.189-.114.338-0.523,0.541-0.645,0.73-.439,1.466-0.912,2.163-1.29,0.728-.4,1.7-0.533,2.162-1.182a7.55,7.55,0,0,1-.541-1.72c-0.472-1.227-1.031-2.67-1.514-3.87-0.036-.323-0.072-0.645-0.108-0.968-2.093-5.18-3.936-10.859-5.839-16.124v-0.645c-0.328-.931-0.966-2.172-1.3-3.117v-0.646c-1.393-3.319-2.7-7.122-3.892-10.534-0.32-.916-0.284-1.686-0.649-2.58-0.132-.322-0.528-0.828-0.649-1.182a64.845,64.845,0,0,0-2.162-6.235c-0.555-1.2-.563-2.518-1.081-3.763-1.6-3.854-2.686-8.337-4.433-12.147l-0.108-.968c-0.14-.335-0.527-0.893-0.649-1.29V94.082c-1.379-3.293-2.51-7.1-3.892-10.427V83.01c-0.131-.38-0.519-0.909-0.649-1.29V81.075c-0.831-2.051-1.548-4.519-2.487-6.557l-0.108-.86c-0.144-.346-0.53-0.915-0.649-1.29V71.722c-0.872-2.091-1.848-4.615-2.595-6.772-2.735-7.9-5.187-15.76-8.109-23.434-0.719-1.887-1.269-3.813-1.946-5.59-0.307-.806-0.056-1.819-1.081-1.935-0.347.389-2.2,0.527-3.027,0.322a35.547,35.547,0,0,1-5.19-1.935c-3.675-1.536-7.514-3.269-11.136-4.837H17.293c-1.32-.487-2.857-1.359-4.108-1.935-0.614-.283-1.012-0.161-1.622-0.43-0.91-.4-1.971-1.068-2.811-1.5H8.319c-0.793-.434-0.963-1.42-2.162-1.505a13.944,13.944,0,0,0-.865-3.01,3.746,3.746,0,0,1,.541-2.58A7.385,7.385,0,0,1,6.265,15.5c0.833-1.149,3.848-2.758,6.163-2.042a79.082,79.082,0,0,1,7.352,3.117h0.649c0.26,0.11.715,0.527,0.973,0.645l0.757,0.108c0.973,0.465,2.149,1.06,3.136,1.5l0.757,0.107c1.458,0.691,3.169,1.53,4.649,2.15,3.584,1.5,7.869,2.377,9.731,5.59a5.725,5.725,0,0,1,.649,2.687l-0.108,1.183c0.188,0.74.658,1.477,0.865,2.15v0.645c2.074,5.178,3.99,10.848,5.839,16.125,0.656,1.873,1.074,3.69,1.838,5.375l0.108,0.967c1.862,4.438,3.263,9.471,5.082,13.975,0.379,0.938.359,1.846,0.757,2.795,0.137,0.327.531,0.92,0.649,1.29v0.645c1.182,2.654,2.274,5.831,3.244,8.6v0.645c0.379,0.938.971,2.162,1.3,3.117v0.645c0.371,0.916.992,2.162,1.3,3.118v0.645c1.389,3.325,2.695,7.114,3.892,10.534v0.646c0.121,0.3.533,0.9,0.649,1.182V104.4c2.941,7.326,5.278,15.277,8.109,22.682,0.227,0.594.064,0.991,0.324,1.613,2.286,5.456,4.038,11.533,6.163,17.092,0.815,2.131,1.259,4.266,2.162,6.234l0.108,0.968c0.518,1.237,1.151,2.762,1.622,4.085,0.31,0.872.107,2,1.3,2.042,0.719-.758,4.505-0.889,5.839-1.182a5.4,5.4,0,0,0,1.3-.108,0.924,0.924,0,0,0,.108-0.537,7.427,7.427,0,0,1-.432-1.5c-0.625-1.534-1.45-3.441-1.946-5.052-0.241-.783-0.455-1.306-0.649-1.936v-0.644c-1.2-2.992-2.194-6.474-3.46-9.46-0.525-1.238-.565-2.512-1.081-3.762-0.618-1.5-1.164-3.359-1.838-4.838L84,129.126a12.161,12.161,0,0,1-.649-1.4c-0.552-2.145.6-4.16,1.3-5.267C84.882,122.1,85.178,122.3,85.3,121.708ZM3.995,21.092v-0.43H4.211a2.286,2.286,0,0,1,.433.43H3.995ZM5.508,21.2H5.724v0.107A0.372,0.372,0,0,1,5.508,21.2Zm1.081,1.182A0.386,0.386,0,0,1,6.7,22.6H6.589V22.382ZM163.042,63.23h0.324c-0.034,1.619.691,2.289,1.081,3.332v0.645c0.138,0.327.531,0.92,0.649,1.29v0.645c0.12,0.288.54,0.882,0.649,1.183V70.97c0.778,2.224,1.812,4.746,2.595,6.987,0.321,0.919.286,1.68,0.648,2.58,1.1,2.737,2.205,5.3.217,8.17-1.2,1.728-3.632,2.4-5.731,3.225l-0.973.107c-2.722,1.078-5.958,1.9-8.649,3.117l-0.974.108c-0.328.135-.925,0.528-1.3,0.645h-0.649c-2.663,1.1-5.879,1.91-8.541,3.117l-0.974.108c-0.328.135-.925,0.528-1.3,0.645h-0.649c-3.391,1.4-7.305,2.662-10.812,3.87H128.01c-0.309.123-.882,0.538-1.189,0.645h-0.757c-8.149,3.183-16.975,5.615-25.192,8.707-0.6.225-1,.065-1.622,0.323-4.348,1.791-9.167,3.154-13.731,4.729-1.96.677-5.4-1.445-5.947-2.257a14.45,14.45,0,0,1-1.406-3.117v-0.645c-0.587-1.493-1.234-3.327-1.838-4.838-0.036-.322-0.072-0.645-0.108-0.967-2.692-6.463-4.642-13.641-7.136-20.21-0.325-.856-0.3-1.622-0.649-2.472-0.806-1.993-2.34-4.892-1.3-7.632,0.962-2.529,3.406-3.309,5.839-4.407l0.973-.107c3.415-1.4,7.306-2.659,10.812-3.87,0.924-.319,1.69-0.284,2.595-0.645,2.2-.876,4.76-1.888,7.028-2.58,0.787-.24,1.313-0.452,1.946-0.645h0.649c2.18-.868,4.751-1.865,7.028-2.58,0.773-.242,1.31-0.451,1.947-0.645H106.6c5.22-2.157,11.1-3.882,16.435-5.8h0.648c0.97-.379,2.263-0.951,3.244-1.29h0.649c1.571-.626,3.48-1.394,5.082-1.935,0.759-.257,1.328-0.457,1.946-0.645h0.649c3.943-1.565,8.2-2.7,12.325-4.192,1.282-.464,3.723-1.808,5.623-1.4,2.706,0.586,4.37,1.663,5.3,3.977,0.38,0.948.355,1.854,0.757,2.8,0.539,1.264,1.126,2.884,1.621,4.192,0.226,0.6.067,0.988,0.325,1.612,0.123,0.3.529,0.855,0.649,1.182v0.538a3.244,3.244,0,0,1,.324.43l-0.108.645C162.384,61.4,163.008,61.967,163.042,63.23ZM151.8,49.471c-0.638.655-3.768,1.161-4.865,1.613-3.154,1.3-6.763,2.346-9.948,3.547h-0.54c-0.349.142-.95,0.525-1.3,0.645H134.5c-2.209.882-4.838,1.7-7.028,2.58h-0.757c-0.318.125-.857,0.533-1.189,0.645h-0.757c-0.918.373-2.163,0.964-3.136,1.29h-0.649c-0.919.368-2.183,0.971-3.135,1.29H117.09c-2.13.865-4.719,1.844-6.92,2.58h-0.757c-2.108.91-4.707,1.819-6.919,2.58h-0.649c-0.348.139-.921,0.527-1.3,0.645H99.9c-2.789,1.15-5.985,2.234-8.866,3.225H90.384c-0.936.373-2.216,0.919-3.135,1.29H86.492c-0.318.125-.857,0.534-1.189,0.645H84.545c-2.8,1.093-5.992,2.235-8.866,3.225C73.7,75.953,70.992,75.9,71.03,78.6c0.527,0.425.387,1.106,0.649,1.827C72.1,81.6,72.7,83.169,73.193,84.3c0.3,0.677.129,1.21,0.433,1.935,1.021,2.439,1.806,5.419,2.919,7.847,0.241,0.527.088,1.18,0.324,1.72,0.788,1.8,1.553,4.03,2.27,5.912,0.227,0.594.065,0.99,0.325,1.613,0.12,0.286.543,0.882,0.649,1.182v0.752c0.77,1.881,1.581,4.076,2.271,6.02,0.381,1.073.294,2.23,1.622,2.365a2.193,2.193,0,0,0,1.189.108c0.906-.237,1.973-0.784,2.811-1.075h0.649c2.738-1.106,5.879-2.016,8.65-3.118l0.973-.107c0.318-.128.856-0.533,1.189-0.645h0.757c1.232-.5,2.823-1.1,4.109-1.613,0.567-.226,1.01-0.069,1.622-0.322,0.3-.124.859-0.534,1.189-0.645H107.9l0.216-.323c0.753-.345,1.7-0.323,2.487-0.645,1.285-.529,2.882-1.192,4.216-1.612h0.649c0.329-.136.926-0.528,1.3-0.645h0.648c5.793-2.393,12.31-4.021,18.165-6.342l0.973-.107c0.356-.142.9-0.522,1.3-0.645H138.5c3.3-1.364,7.208-2.286,10.488-3.762l0.973-.107c0.944-.338,2.171-0.956,3.136-1.29h0.648c1.548-.641,3.5-1.381,5.082-1.935h0.757c0.879-.357,2.128-0.978,3.027-1.29,1.775-.615,3.493-0.482,3.46-2.9-0.609-.7-0.584-2.054-0.973-3.01-0.376-.924-0.967-2.183-1.3-3.118-0.309-.873-0.3-1.735-0.649-2.58-1.256-3.079-2.384-6.694-3.568-9.782l0.108-.645c-0.019-.054-0.293-0.331-0.324-0.43V64.413c-0.244-.673-0.79-1.525-1.081-2.15-0.247-.528-0.09-0.938-0.325-1.5-0.4-.97-0.951-2.24-1.3-3.225V56.888c-0.647-1.545-1.348-3.489-1.946-5.052a13.537,13.537,0,0,0-.325-1.505,9.473,9.473,0,0,0-.865-0.86H151.8ZM98.277,158.15a3.08,3.08,0,0,1,1.189.322h1.3c0.474,0.133,1.308.481,1.73,0.645h0.756a50.166,50.166,0,0,1,7.245,3.225c0.523,0.278,1.032.99,1.513,1.29h0.433l0.108,0.323a10.56,10.56,0,0,0,.973.537,4.486,4.486,0,0,0,1.3,1.075c0.628,0.343,3.53-1.051,4.217-1.29,4.154-1.445,8.576-2.418,12.434-4.192,0.585-.269.975-0.09,1.622-0.323,0.313-.112.876-0.535,1.189-0.645h0.757c0.916-.324,2.209-0.968,3.136-1.29,0.625-.217.925-0.069,1.513-0.322,0.063-.027.239-0.293,0.325-0.323h0.757c0.915-.371,2.191-0.967,3.135-1.29h0.649c11.765-4.066,23.941-8.151,35.68-12.254h0.757c0.288-.117.888-0.54,1.189-0.645h0.757c3.388-1.373,7.283-2.537,10.7-3.87,1.858-.724,4.744-0.741,4.866-3.118,0.338-.528-0.186-1.05-0.325-1.4v-0.753c-0.374-.926-0.779-2.117-1.189-3.117-0.727-1.773-1.258-3.755-1.946-5.482l-0.108-.968c-0.891-2.114-1.849-4.693-2.595-6.879v-0.753l-0.324-.215c-0.242-.525-0.089-1.182-0.325-1.72l-0.324-.215c-0.256-.549-0.084-0.929-0.324-1.5-0.4-.964-0.952-2.239-1.3-3.225v-0.645c-0.647-1.538-1.387-3.477-1.946-5.052v-0.752c-0.618-1.5-1.4-3.39-1.946-4.945-0.471-1.338-.967-4.52-2.055-5.052-1.886-.924-4.214.407-5.73,0.967-4.627,1.71-9.452,2.944-13.948,4.73l-0.973.108c-0.3.124-.859,0.534-1.189,0.645H161.2c-1.5.614-3.421,1.413-4.974,1.935h-0.757c-7.748,3.154-16.311,5.334-24.111,8.385H130.6c-0.919.362-2.181,0.959-3.135,1.29-0.911.315-1.707,0.277-2.595,0.645-3.105,1.286-6.772,2.16-9.839,3.547-0.533.241-1.182,0.088-1.73,0.323l-0.216.322a4.841,4.841,0,0,0-1.19.323c-0.762.641,0.347,1.052-1.513,1.074-0.424.576-1.74-.062-2.487,0.216-0.369.136-1.121,0.513-1.514,0.644h-0.649c-4.018,1.657-8.625,3.1-12.758,4.515-2.27.779-5.4,0.871-5.406,3.87,0.562,0.664.549,2.19,0.973,3.01a26.941,26.941,0,0,1,1.3,3.225v0.752c0.13,0.3.535,0.826,0.649,1.183v0.645c0.117,0.321.529,0.844,0.649,1.182v0.645c1.168,2.78,2.079,6.059,3.244,8.815v0.645c0.391,0.983.955,2.249,1.3,3.225v0.645c0.631,1.567,1.328,3.487,1.946,5.052v0.753A6.4,6.4,0,0,1,98.277,158.15ZM93.2,175.457a4.329,4.329,0,0,1-.865.107,23.151,23.151,0,0,0-3.46.968,14.023,14.023,0,0,0-6.812,7.417c-0.3.7-.423,1.714-0.649,2.365-0.459,1.326.25,4.946,0.541,5.7,0.344,0.89.355,1.648,0.757,2.472,0.079,0.162.436,0.374,0.541,0.538a11.973,11.973,0,0,0,6.487,5.375c1.341,0.481,3.557,1.451,5.731.968a19.275,19.275,0,0,0,2.271-.323c3.925-1.469,6.976-3.738,8.65-7.418,0.482-1.059.6-2.351,0.973-3.439a17.639,17.639,0,0,0-.324-5.052c-0.036-.107-0.286-0.411-0.325-0.538-1.393-4.58-4.408-7.08-8.758-8.707A14.077,14.077,0,0,0,93.2,175.457Z"/>
</svg>
